<?xml version="1.0" encoding="utf-8"?>
<!-- Generator: Adobe Illustrator 20.1.0, SVG Export Plug-In . SVG Version: 6.00 Build 0)  -->
<svg version="1.1" id="Layer_1" xmlns="http://www.w3.org/2000/svg" xmlns:xlink="http://www.w3.org/1999/xlink" x="0px" y="0px"
	 viewBox="0 0 1366 768" style="enable-background:new 0 0 1366 768;" xml:space="preserve">
<style type="text/css">
	.st0{fill:#231F20;}
	.st1{fill:#0066A4;}
	.st2{fill:#FFFFFF;}
	.st3{fill:#E11D38;}
</style>
<path class="st0" d="M776.7,660.4c-1.7,0-3.1-1.4-3.1-3.1V110.7c0-1.7,1.4-3.1,3.1-3.1c1.7,0,3.1,1.4,3.1,3.1v546.5
	C779.8,659,778.4,660.4,776.7,660.4"/>
<g>
	<path class="st0" d="M1017,490.8h-6.2v16h-4.7V473c0-4.5,2.8-7.5,6.9-8.3c0.9-0.2,1.9-0.2,2.9-0.2h2.7c1.1,0,2.3,0.1,3.1,0.2
		c6.2,1,10.7,5.7,10.7,12.5c0,7.3-4.5,11.8-10.6,13.2C1020.5,490.7,1019.1,490.8,1017,490.8z M1018.9,468.5h-2.9
		c-1,0-1.7,0.1-2.3,0.2c-1.9,0.5-3,1.7-3,4.1v13.7h6.5c1.3,0,2.6-0.1,3.4-0.2c4.3-0.8,7.1-4,7.1-9.1c0-4.1-2.6-7.7-6.5-8.5
		C1020.6,468.6,1019.7,468.5,1018.9,468.5z"/>
	<path class="st0" d="M1052.4,491.9c-1.4-2.4-2.5-3.2-4.6-3.2h-5.8v18.1h-4.6v-33.5c0-4.1,2-7.4,6.4-8.5c1.1-0.2,2.3-0.4,3.5-0.4
		h2.6c1.2,0,2.7,0.1,3.7,0.3c5.6,1,10.1,5,10.1,11.7c0,5.9-3.5,9.9-8.3,11.6l11.5,18.8h-5.5L1052.4,491.9z M1050.1,468.6h-3.4
		c-3.2,0-4.8,1.6-4.8,4.6v11.3h8.1c5.2,0,9-2.7,9-8.1c0-3.8-2.4-6.6-5.7-7.5C1052.5,468.7,1051.2,468.6,1050.1,468.6z"/>
	<path class="st0" d="M1068,485.7c0-11.7,6.2-21.7,19.4-21.7c12.8,0,19.3,10,19.3,21.7c0,11.3-6.5,21.8-19.2,21.8
		C1074.4,507.5,1068,497.4,1068,485.7z M1072.8,485.7c0,9.6,4.5,17.6,14.6,17.6c10,0,14.3-8.1,14.3-17.6c0-9.7-4.7-17.4-14.4-17.4
		C1077.3,468.3,1072.8,476.1,1072.8,485.7z"/>
	<path class="st0" d="M1113.3,498.5c-0.5-1.5-0.7-3.5-0.7-5.8v-28.1h4.8v28c0,1.5,0.1,2.8,0.3,3.5c0.8,4,4,7.1,11.2,7.1
		c2.7,0,6.8-0.7,9.1-1.5v-37.1h4.8v40.3c-4.3,1.5-9.2,2.6-14.2,2.6C1120.5,507.5,1115.1,504.2,1113.3,498.5z"/>
	<path class="st0" d="M1151.7,506.8v-33.7c0-6.1,4.9-8.7,10-8.7h2.6c13.4,0,20.2,10.2,20.2,21.4c0,11.3-6.5,21-19.3,21H1151.7z
		 M1161.7,468.6c-3.1,0-5.4,1.1-5.4,4.6v29.3h8.3c1,0,2.3,0,2.9-0.1c7.6-0.9,12.3-7.1,12.3-16.7c0-8.8-4.9-17.2-15.5-17.2H1161.7z"
		/>
	<path class="st0" d="M967.7,572.2c1.3-0.9,2.5-1.8,3.7-2.8c2.6,4.2,5.9,5.5,11,5.5c7.1,0,9.5-3.2,9.5-7.1c0-3.9-2.7-5.8-5.9-7.2
		c-2.1-0.9-4.4-1.6-6.6-2.5c-5.2-2-9.7-4.8-9.7-11.7c0-5.8,4.3-10,12.9-10c4.9,0,9.5,0.6,13.2,5.9c-1.3,0.9-2.4,1.8-3.6,2.7
		c-2.6-3.7-6.1-4.4-9.7-4.4c-5.8,0-8,2.4-8,5.7c0,3.4,1.3,5.9,9.3,8.5c7,2.2,13,5,13,12.8c0,6.2-4,11.6-14.7,11.6
		C976.4,579.1,970.8,577.6,967.7,572.2z"/>
	<path class="st0" d="M1013.7,562.8h-6.2v16h-4.7V545c0-4.5,2.8-7.5,6.9-8.3c0.9-0.2,1.9-0.2,2.9-0.2h2.7c1.1,0,2.3,0.1,3.1,0.2
		c6.2,1,10.7,5.7,10.7,12.5c0,7.3-4.5,11.8-10.6,13.2C1017.3,562.6,1015.8,562.8,1013.7,562.8z M1015.7,540.5h-2.9
		c-1,0-1.7,0.1-2.3,0.2c-1.9,0.5-3,1.7-3,4.1v13.7h6.5c1.3,0,2.6-0.1,3.4-0.2c4.3-0.8,7.1-4,7.1-9.1c0-4.1-2.6-7.7-6.5-8.5
		C1017.3,540.6,1016.4,540.5,1015.7,540.5z"/>
	<path class="st0" d="M1031.8,557.7c0-11.7,6.2-21.7,19.4-21.7c12.8,0,19.3,10,19.3,21.7c0,11.3-6.5,21.8-19.2,21.8
		C1038.2,579.5,1031.8,569.4,1031.8,557.7z M1036.7,557.7c0,9.6,4.5,17.6,14.6,17.6c10,0,14.3-8.1,14.3-17.6
		c0-9.7-4.7-17.4-14.4-17.4C1041.2,540.3,1036.7,548.1,1036.7,557.7z"/>
	<path class="st0" d="M1099.2,575.1c-5.4-10.9-11.1-22.6-16.5-33.4c-0.3-0.6-0.5-0.8-0.8-0.8c-0.2,0-0.4,0.2-0.4,0.7v37.3h-4.5
		v-37.9c0-2.6,1.6-4.7,4.4-4.7c2.7,0,4.3,1.8,5.5,4.1l16.6,33.4c0.2,0.5,0.4,0.7,0.7,0.7s0.4-0.2,0.4-0.7v-37.3h4.5v37.8
		c0,2.9-1.6,4.9-4.4,4.9C1102.5,579.2,1100.7,578.1,1099.2,575.1z"/>
	<path class="st0" d="M1114.5,572.2c1.3-0.9,2.5-1.8,3.7-2.8c2.6,4.2,5.9,5.5,11,5.5c7.1,0,9.5-3.2,9.5-7.1c0-3.9-2.7-5.8-5.9-7.2
		c-2.1-0.9-4.4-1.6-6.6-2.5c-5.2-2-9.7-4.8-9.7-11.7c0-5.8,4.3-10,12.9-10c4.9,0,9.5,0.6,13.2,5.9c-1.3,0.9-2.4,1.8-3.6,2.7
		c-2.6-3.7-6.1-4.4-9.7-4.4c-5.8,0-8,2.4-8,5.7c0,3.4,1.3,5.9,9.3,8.5c7,2.2,13,5,13,12.8c0,6.2-4,11.6-14.7,11.6
		C1123.2,579.1,1117.6,577.6,1114.5,572.2z"/>
	<path class="st0" d="M1147.3,557.7c0-11.7,6.2-21.7,19.4-21.7c12.8,0,19.3,10,19.3,21.7c0,11.3-6.5,21.8-19.2,21.8
		C1153.7,579.5,1147.3,569.4,1147.3,557.7z M1152.2,557.7c0,9.6,4.5,17.6,14.6,17.6c10,0,14.3-8.1,14.3-17.6
		c0-9.7-4.7-17.4-14.4-17.4C1156.7,540.3,1152.2,548.1,1152.2,557.7z"/>
	<path class="st0" d="M1207.6,563.8c-1.4-2.4-2.5-3.2-4.6-3.2h-5.8v18.1h-4.6v-33.5c0-4.1,2-7.4,6.4-8.5c1.1-0.2,2.3-0.4,3.5-0.4
		h2.6c1.2,0,2.7,0.1,3.7,0.3c5.6,1,10.1,5,10.1,11.7c0,5.9-3.5,9.9-8.3,11.6l11.5,18.8h-5.5L1207.6,563.8z M1205.4,540.6h-3.4
		c-3.2,0-4.8,1.6-4.8,4.6v11.3h8.1c5.2,0,9-2.7,9-8.1c0-3.8-2.4-6.6-5.7-7.5C1207.7,540.7,1206.5,540.6,1205.4,540.6z"/>
</g>
<g>
	<path class="st1" d="M1184,295.8c-1.9-9.3-5.6-17.1-11-24.1c-10.9-14.4-28.6-23.5-52.5-23.5c-37.2,0-60.1,25.3-66.9,51.9
		c-6.1-18.8-22.4-31.4-39.6-36.8c12.9-9.4,19.7-22.9,19.7-38.3c0-14.3-6-27.3-15.9-35.8c-14.6-12.4-34.6-15-59.1-15
		c-18.9,0-26,0-48,0v207.3c13.6,0,27.6-0.1,41.2,0c12.1,0.1,24,0,35-0.5c35-1.4,58.9-19,66.5-45.4c2.6,11.7,7.7,21.3,14.3,28.6
		c13.5,14.8,33,20.6,52.6,20.6c24.2,0,41.7-7,53.6-17.8L1157,347c-8.6,6.5-19.7,10.3-32.1,10.3c-24.4-0.1-35.1-15.5-36.1-30.3h95.2
		v54.6h35.6V175.2H1184V295.8z M947.4,202.2l9.9,0c9.6,0,17.1,1,22.6,3.1c10.7,4.2,15.8,12.7,15.8,23.4c0,9-3.4,23.2-22.4,27.1
		c-3.2,0.6-7.7,1-14.2,1c-9.1,0-11.7,0-11.7,0V202.2z M987.7,351.2c-4.5,0.8-9.9,1-14.4,1c-13.4,0-26,0-26,0l0-67.6
		c0,0,13.6,0,23.2,0c7.3,0,15.6,0.8,20.4,2.1c16.3,4.3,25.6,16,25.6,31.4C1016.7,334,1008,347.5,987.7,351.2z M1089.5,301.2
		c3.1-15.1,14.3-26,30.8-26c16.5,0,27.4,9.7,30.3,26H1089.5z"/>
	<rect x="1243.5" y="175.2" class="st1" width="35" height="206.3"/>
</g>
<g>
	<path class="st2" d="M487.1,206c-34.2-28.2-76.1-43.1-121.6-43.1c-45.1,0-87,14.9-121.6,43.1H87.5v340h139
		c36.7,37.9,85.4,59.2,138.6,59.2s101.9-20.9,138.6-59.2h139V206H487.1z M626.5,529.4H496.8c-33,37.1-79,59.2-131.7,59.2
		s-98.7-22.2-131.7-59.2H103.6V222.5H249c31-27.4,70.9-43.1,115.6-43.1s84.6,16.1,115.6,43.1h145.4v306.9H626.5z"/>
	<path class="st2" d="M191.4,384c0,100.3,63.2,194.6,174,194.6s174-94.3,174-194.6s-63.2-194.6-174-194.6S191.4,283.7,191.4,384z
		 M525.4,384c0,99.5-64,180.5-159.9,180.5s-159.9-81-159.9-180.5s64-180.5,159.9-180.5S525.4,284.5,525.4,384z"/>
	<path class="st2" d="M279.2,384c0,91.8,22.6,166.4,86.2,166.4s86.2-74.5,86.2-166.4s-22.6-166.4-86.2-166.4S279.2,292.2,279.2,384z
		 M437.5,384c0,56.8-9.3,152.3-72.1,152.3s-72.1-95.5-72.1-152.3s9.3-152.3,72.1-152.3S437.5,327.2,437.5,384z"/>
</g>
<g>
	<path class="st3" d="M500,241.8c-6-6.8-12.1-13.3-18.9-19.3c-31-27.4-70.9-43.1-115.6-43.1s-84.6,16.1-115.6,43.1
		c-6.8,6-12.9,12.5-18.9,19.3H116v143.8h65.4c0.4,57.2,19.7,107.6,52,143.8c33,37.1,79,59.2,131.7,59.2s98.7-22.2,131.7-59.2
		c32.2-36.3,52-86.6,52-143.8H615V241.8H500z M365.4,578.6c-110.8,0-174-94.3-174-194.6s63.2-194.6,174-194.6s174,94.3,174,194.6
		S476.2,578.6,365.4,578.6z"/>
	<path class="st3" d="M365.4,231.7c-62.8,0-72.1,95.5-72.1,152.3s9.3,152.3,72.1,152.3s72.1-95.5,72.1-152.3
		C437.5,327.2,428.3,231.7,365.4,231.7z M365.4,526.2c-53.6,0-62-87.4-62-140.6h124.5C427.5,438.8,419,526.2,365.4,526.2z"/>
</g>
<g>
	<path d="M123.4,385.6V241.8h107.6c6-6.8,12.1-13.3,18.9-19.3H104.4v306.9h129.7c-32.2-36.3-52-86.6-52-143.8H123.4L123.4,385.6z"/>
	<path d="M481,222.5c6.8,6,12.9,12.5,18.9,19.3h107.6v143.8h-58c-0.4,57.2-19.7,107.6-52,143.8h129.7V222.5H481L481,222.5z"/>
	<path d="M365.4,526.2c53.6,0,62-87.4,62-140.6H303C303.4,438.8,311.9,526.2,365.4,526.2z"/>
	<path d="M365.4,203.5c-95.9,0-159.9,81-159.9,180.5s64,180.5,159.9,180.5s159.9-81,159.9-180.5S461.3,203.5,365.4,203.5z
		 M365.4,550.4c-63.6,0-86.2-74.5-86.2-166.4s22.6-166.4,86.2-166.4s86.2,74.5,86.2,166.4S429.1,550.4,365.4,550.4z"/>
	<polygon points="504.4,552.8 507.6,552.8 507.6,562.4 508.8,562.4 508.8,552.8 512.5,552.8 512.5,551.6 504.4,551.6 	"/>
	<polygon points="518.9,560.4 516.1,551.6 514.1,551.6 514.1,562.4 515.3,562.4 515.3,553.2 518.1,562.4 519.3,562.4 522.1,553.2 
		522.1,562.4 523.3,562.4 523.3,551.6 521.7,551.6 	"/>
</g>
</svg>
